<?xml version="1.0" encoding="utf-8"?>
<!-- Generator: Adobe Illustrator 16.0.0, SVG Export Plug-In . SVG Version: 6.00 Build 0)  -->
<!DOCTYPE svg PUBLIC "-//W3C//DTD SVG 1.1//EN" "http://www.w3.org/Graphics/SVG/1.1/DTD/svg11.dtd">
<svg version="1.1" id="Layer_2" xmlns="http://www.w3.org/2000/svg" xmlns:xlink="http://www.w3.org/1999/xlink" x="0px" y="0px"
	 width="50px" height="50px" viewBox="0 0 50 50" enable-background="new 0 0 50 50" xml:space="preserve">
<path d="M46.949,19.061c-0.475-0.591-1.191-0.936-1.949-0.936h-2.5c0-1.381-1.119-2.5-2.5-2.5h-2.5v-2.5c0-1.381-1.119-2.5-2.5-2.5
	h-1.25v-5c0-0.69-0.561-1.25-1.25-1.25h-25c-0.691,0-1.25,0.56-1.25,1.25v5H5c-1.381,0-2.5,1.119-2.5,2.5v30
	c0,1.381,1.119,2.5,2.5,2.5h5h25h5c1.172,0,2.187-0.814,2.439-1.958l5-22.5C47.605,20.427,47.424,19.652,46.949,19.061z
	 M6.25,43.125H5v-30h1.25V43.125z M32.5,15.625c-1.381,0-2.5,1.119-2.5,2.5H15c-1.172,0-2.188,0.814-2.441,1.958
	c0,0-5.057,22.862-5.057,23.042H7.5v-37.5h25V15.625z M35,15.625h-1.25v-2.5H35V15.625z M27.333,11.167H12.417
	c-0.69,0-1.25-0.56-1.25-1.25s0.56-1.25,1.25-1.25h14.916c0.69,0,1.25,0.56,1.25,1.25S28.023,11.167,27.333,11.167z M27.333,16.25
	H12.417c-0.69,0-1.25-0.56-1.25-1.25s0.56-1.25,1.25-1.25h14.916c0.69,0,1.25,0.56,1.25,1.25S28.023,16.25,27.333,16.25z"/>
</svg>
