<?xml version="1.0" encoding="UTF-8" standalone="no"?>
<!-- Created with Inkscape (http://www.inkscape.org/) -->

<svg
   xmlns:dc="http://purl.org/dc/elements/1.1/"
   xmlns:cc="http://creativecommons.org/ns#"
   xmlns:rdf="http://www.w3.org/1999/02/22-rdf-syntax-ns#"
   xmlns:svg="http://www.w3.org/2000/svg"
   xmlns="http://www.w3.org/2000/svg"
   version="1.1"
   width="96"
   height="96"
   viewBox="0 0 96 96"
   id="Layer_1"
   xml:space="preserve"><metadata
   id="metadata13"><rdf:RDF><cc:Work
       rdf:about=""><dc:format>image/svg+xml</dc:format><dc:type
         rdf:resource="http://purl.org/dc/dcmitype/StillImage" /><dc:title></dc:title></cc:Work></rdf:RDF></metadata><defs
   id="defs11" />
<g
   id="g3">
	<path
   d="m 74.973,29.392 -24.127,-16.66 3.832,-10.949 -47.617,0 0,93.096 67.912,0 c 0.0057,-31.312986 0,-33.891357 0,-65.487 z"
   id="path5" />
	<polygon
   points="58.27,9.994 76.904,22.86 61.375,1.121 "
   id="polygon7" />
</g>
<path
   d="m 29.77086,47.245576 0,-10.292451 c 0,-1.363125 0.60335,-2.652362 1.698859,-3.630011 1.095688,-0.977471 2.540268,-1.516125 4.067926,-1.516125 l 0,-5.145955 c -6.343463,0 -11.533572,4.63145 -11.533572,10.292091 l 0,7.719023 c 0,1.42115 -1.291038,2.573247 -2.883392,2.573247 l -2.883393,0 0,5.145955 2.883393,0 c 1.592534,0 2.883392,1.152456 2.883392,2.573249 l 0,7.719922 c 0,5.65974 5.190109,10.29119 11.533572,10.29119 l 0,-5.146135 c -1.527658,0 -2.972418,-0.538474 -4.067926,-1.516124 C 30.37421,65.335621 29.77086,64.046925 29.77086,62.683981 l 0,-10.293171 c 0,-1.420972 -1.291039,-2.572707 -2.883393,-2.572707 1.592535,3.59e-4 2.883393,-1.152096 2.883393,-2.572527 z m 23.067142,5.145774 0,10.293171 c 0,1.362764 -0.603349,2.651461 -1.698859,3.62929 -1.095509,0.977652 -2.54009,1.516125 -4.067927,1.516125 l 0,5.146136 c 6.343645,0 11.533572,-4.631451 11.533572,-10.29137 l 0,-7.719923 c 0,-1.421152 1.291038,-2.573248 2.883393,-2.573248 l 2.883393,0 0,-5.145955 -2.883393,0 c -1.592355,0 -2.883393,-1.152456 -2.883393,-2.573247 l 0,-7.719204 c 0,-5.660821 -5.189927,-10.292091 -11.533572,-10.292091 l 0,5.145955 c 1.528018,0 2.972418,0.538654 4.067927,1.516484 1.095689,0.97747 1.698859,2.266708 1.698859,3.629831 l 0,10.292633 c 0,1.42061 1.291039,2.572706 2.883392,2.572706 -1.592353,-1.81e-4 -2.883392,1.152276 -2.883392,2.572707 z"
   id="path3"
   style="fill:#ffffff;fill-opacity:1" /></svg>